<?xml version="1.0" encoding="iso-8859-1"?>
<!-- Generator: Adobe Illustrator 19.0.0, SVG Export Plug-In . SVG Version: 6.00 Build 0)  -->
<svg version="1.1" id="Layer_1" xmlns="http://www.w3.org/2000/svg" xmlns:xlink="http://www.w3.org/1999/xlink" x="0px" y="0px"
	 viewBox="0 0 503.893 503.893" style="enable-background:new 0 0 503.893 503.893;" xml:space="preserve">
<g transform="translate(1 1)">
	<path style="fill:rgb(203 213 225);" d="M318.249,447.853c-9.387,12.8-18.773,29.867-24.747,50.347h-42.667
		C250.836,498.2,284.116,464.92,318.249,447.853"/>
	<path style="fill:#AE938D;" d="M370.302,284.867h2.56c-12.8,87.04-44.373,128-122.027,128s-108.373-40.96-122.027-128h2.56
		C148.436,301.933,191.102,319,191.102,319s8.533-42.667,34.133-42.667h51.2c25.6,0,34.133,42.667,34.133,42.667
		S353.236,301.933,370.302,284.867"/>
	<g>
		<path style="fill:rgb(203 213 225);" d="M353.236,498.2h-59.733c5.973-21.333,15.36-37.547,24.747-50.347
			c17.067-23.893,34.987-34.133,34.987-34.133c119.467,0,128.853,26.453,136.533,51.2l8.533,34.133H353.236V498.2z"/>
		<path style="fill:rgb(203 213 225);" d="M261.076,97.133c-54.613,19.627-93.013,44.373-115.2,64l-14.507-20.48
			c0,0,73.387-93.867,209.92-110.933l0.853-0.853c62.293,28.16,87.893,75.093,87.893,128.853c0,51.2-21.333,85.333-21.333,85.333
			s-15.36,19.627-32.427,25.6h-0.853c1.707-12.8,2.56-27.307,4.267-42.667v-34.133C378.836,173.933,344.702,114.2,261.076,97.133"/>
		<path style="fill:rgb(203 213 225);" d="M125.396,268.653C103.209,260.12,92.969,242.2,92.969,242.2s-21.333-34.133-21.333-85.333
			c0-75.093,51.2-136.533,179.2-153.6c36.693,5.12,66.56,13.653,91.307,24.747l-0.853,0.853
			C204.756,45.933,131.369,139.8,131.369,139.8l14.507,20.48c-15.36,13.653-23.04,24.747-23.04,30.72v17.067v17.067
			c0.853,15.36,2.56,29.867,4.267,43.52H125.396z"/>
		<path style="fill:rgb(203 213 225);" d="M232.916,498.2H3.369l8.533-34.133c8.533-25.6,34.133-51.2,102.4-51.2
			c42.667,0,85.333,25.6,110.933,68.267l7.68,15.36V498.2z"/>
	</g>
	<path style="fill:#FFD0A1;" d="M378.836,191v34.133c-0.853,15.36-2.56,29.013-3.413,42.667c-0.853,5.973-1.707,11.947-2.56,17.92
		h-2.56c-17.067,17.067-59.733,34.133-59.733,34.133s-8.533-42.667-34.133-42.667h-51.2c-25.6,0-34.133,42.667-34.133,42.667
		s-42.667-17.067-59.733-34.133h-2.56c-0.853-5.12-1.707-11.093-2.56-17.067c-1.707-13.653-2.56-28.16-4.267-42.667V208.92v-17.067
		c0-5.12,7.68-17.067,23.04-30.72c22.187-19.627,59.733-44.373,115.2-64C344.702,114.2,378.836,173.933,378.836,191"/>
</g>
<path style="fill:#51565F;" d="M294.502,503.467h-0.853c-2.56-0.853-3.413-3.413-2.56-5.12c4.267-14.507,9.387-26.453,15.36-36.693
	c-27.307,17.067-50.347,40.96-51.2,40.96c-1.707,1.707-4.267,1.707-5.973,0c-1.707-1.707-1.707-4.267,0-5.973
	c1.707-1.707,33.28-33.28,67.413-51.2c17.067-23.04,34.987-34.133,35.84-34.987c1.707-0.853,2.56-0.853,4.267-0.853
	c120.32,0,129.707,28.16,138.24,53.76l8.533,34.133c0.853,2.56-0.853,4.267-3.413,5.12c-2.56,0.853-4.267-0.853-5.12-3.413
	l-8.533-34.133c-7.68-22.187-16.213-47.787-129.707-47.787h-0.853c-3.413,2.56-17.067,11.947-31.573,29.867
	c0,0.853-0.853,2.56-2.56,3.413c-9.387,12.8-17.92,28.16-23.04,48.64C297.916,502.613,296.209,503.467,294.502,503.467z
	 M4.369,503.467H3.516c-2.56-0.853-3.413-2.56-3.413-5.12l8.533-34.133c8.533-24.747,33.28-54.613,106.667-54.613
	c44.373,0,88.747,27.307,114.347,69.973c0.853,1.707,0.853,4.267-1.707,5.973c-1.707,0.853-4.267,0.853-5.973-1.707
	c-24.747-40.96-65.707-66.56-107.52-66.56c-54.613,0-87.893,16.213-98.133,48.64l-8.533,34.133
	C7.782,501.76,6.076,503.467,4.369,503.467z M354.236,503.467c-2.56,0-4.267-1.707-4.267-4.267c0-1.707,0-35.84,17.92-62.293
	c1.707-1.707,4.267-2.56,5.973-0.853c1.707,1.707,2.56,4.267,0.853,5.973c-16.213,23.893-16.213,57.173-16.213,57.173
	C358.502,501.76,356.796,503.467,354.236,503.467z M251.836,418.133c-100.693,0-123.733-67.413-132.267-192V192
	c0-16.213,47.787-64,139.093-97.28c0.853-0.853,1.707-0.853,2.56-0.853c29.013-10.24,63.147-19.627,100.693-25.6
	c2.56,0,4.267,0.853,5.12,3.413c0,2.56-0.853,4.267-3.413,5.12c-10.24,1.707-19.627,3.413-29.013,5.12
	c19.627,8.533,53.76,28.16,66.56,65.707c0.853,2.56-0.853,4.267-2.56,5.12c-2.56,0.853-4.267-0.853-5.12-2.56
	c-15.36-46.08-67.413-63.147-73.387-65.707c-15.36,3.413-29.013,7.68-42.667,11.947c74.24,20.48,107.52,75.947,107.52,94.72v34.133
	C375.569,350.72,352.529,418.133,251.836,418.133z M135.782,294.4c14.507,85.333,47.787,115.2,116.053,115.2
	s101.547-29.867,116.053-115.2c-19.627,15.36-52.907,29.013-54.613,29.867c-0.853,0.853-2.56,0-3.413,0
	c-0.853-0.853-1.707-1.707-2.56-2.56c0,0-8.533-39.253-29.867-39.253h-51.2c-22.187,0-29.867,39.253-29.867,39.253
	c0,0.853-0.853,2.56-2.56,2.56c-0.853,0.853-2.56,0.853-3.413,0C188.689,323.413,155.409,309.76,135.782,294.4z M226.236,273.067
	h51.2c23.04,0,34.133,29.013,36.693,40.96c11.093-5.12,40.96-17.92,53.76-31.573c0.853-0.853,0.853-0.853,1.707-0.853
	c2.56-17.067,4.267-34.987,5.973-56.32v-34.133c0-16.213-34.133-72.533-113.493-89.6c-90.453,32.427-133.973,77.653-133.973,89.6
	v34.133c1.707,20.48,3.413,39.253,5.973,55.467c0.853,0,0.853,0.853,1.707,0.853c12.8,12.8,42.667,26.453,53.76,31.573
	C192.102,302.08,203.196,273.067,226.236,273.067z M268.902,315.733h-34.133c-2.56,0-4.267-1.707-4.267-4.267
	c0-2.56,1.707-4.267,4.267-4.267h34.133c2.56,0,4.267,1.707,4.267,4.267C273.169,314.027,271.462,315.733,268.902,315.733z
	 M93.969,247.467c-1.707,0-2.56-0.853-3.413-1.707c-0.853-1.707-22.187-35.84-22.187-87.893C68.369,71.68,133.222,16.213,250.982,0
	h0.853c117.76,15.36,182.613,71.68,182.613,157.867c0,52.053-21.333,86.187-22.187,87.893c-0.853,1.707-4.267,2.56-5.973,1.707
	c-1.707-0.853-2.56-4.267-1.707-5.973c0,0,20.48-34.133,20.48-83.627c0-56.32-28.16-98.133-82.773-123.733h-0.853
	C208.316,51.2,134.929,142.507,134.076,143.36c-1.707,1.707-4.267,2.56-5.973,0.853c-1.707-1.707-2.56-4.267-0.853-5.973
	c0.853-0.853,71.68-89.6,200.533-110.933c-22.187-8.533-47.787-15.36-77.653-18.773C135.782,23.893,75.195,75.946,75.195,157.866
	c0,49.493,20.48,82.773,20.48,82.773c0.853,1.707,0.853,4.267-1.707,5.973C95.676,247.467,94.822,247.467,93.969,247.467z
	 M303.036,204.8c-2.56,0-4.267-1.707-4.267-4.267v-5.973l-12.8-0.853c-2.56,0-4.267-2.56-4.267-4.267
	c0-2.56,1.707-4.267,4.267-4.267l17.067,0.853l0,0l17.067,0.853c2.56,0,4.267,2.56,4.267,4.267c0,2.56-1.707,4.267-4.267,4.267
	l-12.8-0.853v5.12C307.302,203.093,305.596,204.8,303.036,204.8z M200.636,204.8c-2.56,0-4.267-1.707-4.267-4.267v-5.12l-12.8,0.853
	c-2.56,0-4.267-1.707-4.267-4.267c0-2.56,1.707-4.267,4.267-4.267l17.067-0.853l0,0l17.067-0.853c2.56,0,4.267,1.707,4.267,4.267
	c0,2.56-1.707,4.267-4.267,4.267l-12.8,0.853v5.973C204.902,203.093,203.196,204.8,200.636,204.8z"/>
<g>
</g>
<g>
</g>
<g>
</g>
<g>
</g>
<g>
</g>
<g>
</g>
<g>
</g>
<g>
</g>
<g>
</g>
<g>
</g>
<g>
</g>
<g>
</g>
<g>
</g>
<g>
</g>
<g>
</g>
</svg>
